{
  "accessors": [
    {
      "bufferView": 2,
      "componentType": 5126,
      "count": 2707,
      "max": [
        5.662322044372559,
        1.9834129810333252,
        21.43364906311035
      ],
      "min": [
        -6.5980448722839355,
        -10.292948722839355,
        0.07197900116443634
      ],
      "type": "VEC3"
    },
    {
      "bufferView": 2,
      "byteOffset": 32484,
      "componentType": 5126,
      "count": 2707,
      "max": [
        0.9998252987861633,
        0.9997439980506897,
        0.9992252588272095
      ],
      "min": [
        -0.9998194575309753,
        -0.9988815188407898,
        -0.9999457597732544
      ],
      "type": "VEC3"
    },
    {
      "bufferView": 1,
      "componentType": 5126,
      "count": 2707,
      "max": [
        1.3840700387954712,
        -0.019794000312685966
      ],
      "min": [
        0.01169699989259243,
        -0.9815130233764648
      ],
      "type": "VEC2"
    },
    {
      "bufferView": 0,
      "componentType": 5125,
      "count": 12234,
      "type": "SCALAR"
    },
    {
      "bufferView": 2,
      "byteOffset": 64968,
      "componentType": 5126,
      "count": 430,
      "max": [
        1.159656047821045,
        -3.750886917114258,
        20.30598258972168
      ],
      "min": [
        -1.3835899829864502,
        -9.709121704101563,
        16.347156524658203
      ],
      "type": "VEC3"
    },
    {
      "bufferView": 2,
      "byteOffset": 70128,
      "componentType": 5126,
      "count": 430,
      "max": [
        0.9999773502349854,
        0.9876441955566406,
        0.9952463507652283
      ],
      "min": [
        -0.9988793730735779,
        -0.9995086789131165,
        -0.9999850988388062
      ],
      "type": "VEC3"
    },
    {
      "bufferView": 1,
      "byteOffset": 21656,
      "componentType": 5126,
      "count": 430,
      "max": [
        1.9761719703674316,
        -0.014751999638974667
      ],
      "min": [
        1.0187770128250122,
        -0.9797760248184204
      ],
      "type": "VEC2"
    },
    {
      "bufferView": 0,
      "byteOffset": 48936,
      "componentType": 5125,
      "count": 1782,
      "type": "SCALAR"
    }
  ],
  "asset": {
    "extras": {
      "author": "calvinwil5782 (https://sketchfab.com/calvinwil5782)",
      "license": "CC-BY-4.0 (http://creativecommons.org/licenses/by/4.0/)",
      "source": "https://sketchfab.com/3d-models/phil-aa0481a5d16a427ab7eb9075ee9fe473",
      "title": "Phil"
    },
    "generator": "Sketchfab-15.55.0",
    "version": "2.0"
  },
  "bufferViews": [
    {
      "buffer": 0,
      "byteLength": 56064,
      "name": "floatBufferViews",
      "target": 34963
    },
    {
      "buffer": 0,
      "byteLength": 25096,
      "byteOffset": 56064,
      "byteStride": 8,
      "name": "floatBufferViews",
      "target": 34962
    },
    {
      "buffer": 0,
      "byteLength": 75288,
      "byteOffset": 81160,
      "byteStride": 12,
      "name": "floatBufferViews",
      "target": 34962
    }
  ],
  "buffers": [
    {
      "byteLength": 156448,
      "uri": "scene.bin"
    }
  ],
  "images": [
    {
      "uri": "textures/Phil_baseColor.png"
    },
    {
      "uri": "textures/PhilEyes_baseColor.png"
    }
  ],
  "materials": [
    {
      "doubleSided": true,
      "name": "Phil",
      "pbrMetallicRoughness": {
        "baseColorTexture": {
          "index": 0
        },
        "metallicFactor": 0.0,
        "roughnessFactor": 0.6
      }
    },
    {
      "doubleSided": true,
      "name": "PhilEyes",
      "pbrMetallicRoughness": {
        "baseColorTexture": {
          "index": 1
        },
        "metallicFactor": 0.0,
        "roughnessFactor": 0.6
      }
    }
  ],
  "meshes": [
    {
      "name": "Object_0",
      "primitives": [
        {
          "attributes": {
            "NORMAL": 1,
            "POSITION": 0,
            "TEXCOORD_0": 2
          },
          "indices": 3,
          "material": 0,
          "mode": 4
        }
      ]
    },
    {
      "name": "Object_1",
      "primitives": [
        {
          "attributes": {
            "NORMAL": 5,
            "POSITION": 4,
            "TEXCOORD_0": 6
          },
          "indices": 7,
          "material": 1,
          "mode": 4
        }
      ]
    }
  ],
  "nodes": [
    {
      "children": [
        1
      ],
      "matrix": [
        1.0,
        0.0,
        0.0,
        0.0,
        0.0,
        2.220446049250313e-16,
        -1.0,
        0.0,
        0.0,
        1.0,
        2.220446049250313e-16,
        0.0,
        0.0,
        0.0,
        0.0,
        1.0
      ],
      "name": "Sketchfab_model"
    },
    {
      "children": [
        2,
        3
      ],
      "name": "92a45e677dab47e59a6937d3b8b36dbe.obj.cleaner.materialmerger.gles"
    },
    {
      "mesh": 0,
      "name": "Object_2"
    },
    {
      "mesh": 1,
      "name": "Object_3"
    }
  ],
  "samplers": [
    {
      "magFilter": 9729,
      "minFilter": 9987,
      "wrapS": 10497,
      "wrapT": 10497
    }
  ],
  "scene": 0,
  "scenes": [
    {
      "name": "Sketchfab_Scene",
      "nodes": [
        0
      ]
    }
  ],
  "textures": [
    {
      "sampler": 0,
      "source": 0
    },
    {
      "sampler": 0,
      "source": 1
    }
  ]
}
