{
  "accessors": [
    {
      "bufferView": 2,
      "componentType": 5126,
      "count": 4,
      "max": [
        0.7217190265655518,
        -0.3850190043449402,
        0.4530690014362335
      ],
      "min": [
        0.04317700117826462,
        -0.7934550046920776,
        0.1049640029668808
      ],
      "type": "VEC3"
    },
    {
      "bufferView": 1,
      "componentType": 5126,
      "count": 4,
      "max": [
        0.0,
        0.0
      ],
      "min": [
        0.0,
        0.0
      ],
      "type": "VEC2"
    },
    {
      "bufferView": 0,
      "componentType": 5125,
      "count": 4,
      "type": "SCALAR"
    },
    {
      "bufferView": 2,
      "byteOffset": 48,
      "componentType": 5126,
      "count": 244,
      "max": [
        0.8627309799194336,
        0.5915060043334961,
        -0.006771999876946211
      ],
      "min": [
        -0.15429699420928955,
        -0.03402800112962723,
        -0.008880999870598316
      ],
      "type": "VEC3"
    },
    {
      "bufferView": 2,
      "byteOffset": 2976,
      "componentType": 5126,
      "count": 244,
      "max": [
        0.9876499772071838,
        0.6465588808059692,
        -0.12105521559715271
      ],
      "min": [
        -0.8149966597557068,
        -0.718328595161438,
        -0.9999998807907104
      ],
      "type": "VEC3"
    },
    {
      "bufferView": 1,
      "byteOffset": 32,
      "componentType": 5126,
      "count": 244,
      "max": [
        0.8351699709892273,
        0.6395149827003479
      ],
      "min": [
        0.6709330081939697,
        0.38666900992393494
      ],
      "type": "VEC2"
    },
    {
      "bufferView": 0,
      "byteOffset": 16,
      "componentType": 5125,
      "count": 618,
      "type": "SCALAR"
    },
    {
      "bufferView": 2,
      "byteOffset": 5904,
      "componentType": 5126,
      "count": 65532,
      "max": [
        0.9271159768104553,
        1.1339889764785767,
        0.4942440092563629
      ],
      "min": [
        -1.0942829847335815,
        -0.913457989692688,
        -0.008880999870598316
      ],
      "type": "VEC3"
    },
    {
      "bufferView": 2,
      "byteOffset": 792288,
      "componentType": 5126,
      "count": 65532,
      "max": [
        0.9999929666519165,
        0.9999979734420776,
        0.9999994039535522
      ],
      "min": [
        -0.9999994039535522,
        -0.9999992847442627,
        -0.9998230338096619
      ],
      "type": "VEC3"
    },
    {
      "bufferView": 1,
      "byteOffset": 1984,
      "componentType": 5126,
      "count": 65532,
      "max": [
        0.9994360208511353,
        0.9999300241470337
      ],
      "min": [
        0.0006169999833218753,
        4.199999966658652e-05
      ],
      "type": "VEC2"
    },
    {
      "bufferView": 0,
      "byteOffset": 2488,
      "componentType": 5125,
      "count": 320637,
      "type": "SCALAR"
    },
    {
      "bufferView": 2,
      "byteOffset": 1578672,
      "componentType": 5126,
      "count": 65532,
      "max": [
        0.9879580140113831,
        1.1199450492858887,
        0.47394999861717224
      ],
      "min": [
        -1.0934779644012451,
        -0.9154160022735596,
        -0.0087909996509552
      ],
      "type": "VEC3"
    },
    {
      "bufferView": 2,
      "byteOffset": 2365056,
      "componentType": 5126,
      "count": 65532,
      "max": [
        0.9999502897262573,
        0.9999979734420776,
        0.9999951124191284
      ],
      "min": [
        -0.9999884366989136,
        -0.9999635219573975,
        -0.9998947381973267
      ],
      "type": "VEC3"
    },
    {
      "bufferView": 1,
      "byteOffset": 526240,
      "componentType": 5126,
      "count": 65532,
      "max": [
        0.9994490146636963,
        0.9999430179595947
      ],
      "min": [
        2.2000000171829015e-05,
        4.5000000682193786e-05
      ],
      "type": "VEC2"
    },
    {
      "bufferView": 0,
      "byteOffset": 1285036,
      "componentType": 5125,
      "count": 300552,
      "type": "SCALAR"
    },
    {
      "bufferView": 2,
      "byteOffset": 3151440,
      "componentType": 5126,
      "count": 36878,
      "max": [
        0.9879580140113831,
        0.3864389955997467,
        0.4814560115337372
      ],
      "min": [
        -0.19253399968147278,
        -0.8816670179367065,
        -0.008767000399529934
      ],
      "type": "VEC3"
    },
    {
      "bufferView": 2,
      "byteOffset": 3593976,
      "componentType": 5126,
      "count": 36878,
      "max": [
        0.9999806880950928,
        0.9999979734420776,
        0.9999908208847046
      ],
      "min": [
        -0.9998912811279297,
        -0.9999709129333496,
        -0.9982151389122009
      ],
      "type": "VEC3"
    },
    {
      "bufferView": 1,
      "byteOffset": 1050496,
      "componentType": 5126,
      "count": 36878,
      "max": [
        0.999442994594574,
        0.9998279809951782
      ],
      "min": [
        0.000522000016644597,
        4.8000001697801054e-05
      ],
      "type": "VEC2"
    },
    {
      "bufferView": 0,
      "byteOffset": 2487244,
      "componentType": 5125,
      "count": 165780,
      "type": "SCALAR"
    }
  ],
  "asset": {
    "extras": {
      "author": "Zacxophone (https://sketchfab.com/Zacxophone)",
      "license": "SKETCHFAB Standard (https://sketchfab.com/licenses)",
      "source": "https://sketchfab.com/3d-models/banana-crate-15b0ae4fc61d4d31802691deb2abba05",
      "title": "Banana crate"
    },
    "generator": "Sketchfab-15.49.0",
    "version": "2.0"
  },
  "bufferViews": [
    {
      "buffer": 0,
      "byteLength": 3150364,
      "name": "floatBufferViews",
      "target": 34963
    },
    {
      "buffer": 0,
      "byteLength": 1345520,
      "byteOffset": 3150364,
      "byteStride": 8,
      "name": "floatBufferViews",
      "target": 34962
    },
    {
      "buffer": 0,
      "byteLength": 4036512,
      "byteOffset": 4495884,
      "byteStride": 12,
      "name": "floatBufferViews",
      "target": 34962
    }
  ],
  "buffers": [
    {
      "byteLength": 8532396,
      "uri": "scene.bin"
    }
  ],
  "extensionsUsed": [
    "KHR_materials_unlit"
  ],
  "images": [
    {
      "uri": "textures/Caisse_Bananes_baseColor.jpeg"
    }
  ],
  "materials": [
    {
      "doubleSided": true,
      "extensions": {
        "KHR_materials_unlit": {}
      },
      "name": "Caisse_Bananes",
      "pbrMetallicRoughness": {
        "baseColorTexture": {
          "index": 0
        },
        "metallicFactor": 0.0
      }
    }
  ],
  "meshes": [
    {
      "name": "Object_0",
      "primitives": [
        {
          "attributes": {
            "POSITION": 0,
            "TEXCOORD_0": 1
          },
          "indices": 2,
          "material": 0,
          "mode": 1
        }
      ]
    },
    {
      "name": "Object_1",
      "primitives": [
        {
          "attributes": {
            "NORMAL": 4,
            "POSITION": 3,
            "TEXCOORD_0": 5
          },
          "indices": 6,
          "material": 0,
          "mode": 4
        }
      ]
    },
    {
      "name": "Object_2",
      "primitives": [
        {
          "attributes": {
            "NORMAL": 8,
            "POSITION": 7,
            "TEXCOORD_0": 9
          },
          "indices": 10,
          "material": 0,
          "mode": 4
        }
      ]
    },
    {
      "name": "Object_3",
      "primitives": [
        {
          "attributes": {
            "NORMAL": 12,
            "POSITION": 11,
            "TEXCOORD_0": 13
          },
          "indices": 14,
          "material": 0,
          "mode": 4
        }
      ]
    },
    {
      "name": "Object_4",
      "primitives": [
        {
          "attributes": {
            "NORMAL": 16,
            "POSITION": 15,
            "TEXCOORD_0": 17
          },
          "indices": 18,
          "material": 0,
          "mode": 4
        }
      ]
    }
  ],
  "nodes": [
    {
      "children": [
        1
      ],
      "matrix": [
        1.0,
        0.0,
        0.0,
        0.0,
        0.0,
        2.220446049250313e-16,
        -1.0,
        0.0,
        0.0,
        1.0,
        2.220446049250313e-16,
        0.0,
        0.0,
        0.0,
        0.0,
        1.0
      ],
      "name": "Sketchfab_model"
    },
    {
      "children": [
        2,
        3,
        4,
        5,
        6
      ],
      "name": "Banana crate.obj.cleaner.materialmerger.gles"
    },
    {
      "mesh": 0,
      "name": "Object_2"
    },
    {
      "mesh": 1,
      "name": "Object_3"
    },
    {
      "mesh": 2,
      "name": "Object_4"
    },
    {
      "mesh": 3,
      "name": "Object_5"
    },
    {
      "mesh": 4,
      "name": "Object_6"
    }
  ],
  "samplers": [
    {
      "magFilter": 9729,
      "minFilter": 9987,
      "wrapS": 10497,
      "wrapT": 10497
    }
  ],
  "scene": 0,
  "scenes": [
    {
      "name": "Sketchfab_Scene",
      "nodes": [
        0
      ]
    }
  ],
  "textures": [
    {
      "sampler": 0,
      "source": 0
    }
  ]
}
