{
  "accessors": [
    {
      "bufferView": 2,
      "componentType": 5126,
      "count": 444,
      "max": [
        1.5183244943618774,
        48.581424713134766,
        9.761697769165039
      ],
      "min": [
        -1.5183244943618774,
        47.118934631347656,
        8.300536155700684
      ],
      "type": "VEC3"
    },
    {
      "bufferView": 2,
      "byteOffset": 5328,
      "componentType": 5126,
      "count": 444,
      "max": [
        0.9993897676467896,
        1.0,
        0.9987243413925171
      ],
      "min": [
        -0.9993897676467896,
        -1.0,
        -0.9995344877243042
      ],
      "type": "VEC3"
    },
    {
      "bufferView": 1,
      "componentType": 5126,
      "count": 444,
      "max": [
        0.9299960136413574,
        1.9318000078201294
      ],
      "min": [
        0.06401599943637848,
        1.0672399997711182
      ],
      "type": "VEC2"
    },
    {
      "bufferView": 1,
      "byteOffset": 3552,
      "componentType": 5126,
      "count": 444,
      "max": [
        0.0,
        1.0
      ],
      "min": [
        0.0,
        1.0
      ],
      "type": "VEC2"
    },
    {
      "bufferView": 0,
      "componentType": 5125,
      "count": 2640,
      "type": "SCALAR"
    },
    {
      "bufferView": 2,
      "byteOffset": 10656,
      "componentType": 5126,
      "count": 1295,
      "max": [
        1.019357442855835,
        41.2557487487793,
        -3.094381093978882
      ],
      "min": [
        -1.4980045557022095,
        6.780793190002441,
        -34.197845458984375
      ],
      "type": "VEC3"
    },
    {
      "bufferView": 2,
      "byteOffset": 26196,
      "componentType": 5126,
      "count": 1295,
      "max": [
        0.9993029832839966,
        0.9973864555358887,
        0.999932050704956
      ],
      "min": [
        -0.999992311000824,
        -0.9971296787261963,
        -0.9946520328521729
      ],
      "type": "VEC3"
    },
    {
      "bufferView": 3,
      "componentType": 5126,
      "count": 1295,
      "max": [
        0.9909955859184265,
        0.9997372627258301,
        0.999599039554596,
        1.0
      ],
      "min": [
        -0.9992727041244507,
        -0.9998649954795837,
        -0.9972204566001892,
        -1.0
      ],
      "type": "VEC4"
    },
    {
      "bufferView": 1,
      "byteOffset": 7104,
      "componentType": 5126,
      "count": 1295,
      "max": [
        0.9296910166740417,
        1.56482994556427
      ],
      "min": [
        0.043476998805999756,
        1.0571500062942505
      ],
      "type": "VEC2"
    },
    {
      "bufferView": 1,
      "byteOffset": 17464,
      "componentType": 5126,
      "count": 1295,
      "max": [
        0.9296910166740417,
        1.56482994556427
      ],
      "min": [
        0.043476998805999756,
        1.0571500062942505
      ],
      "type": "VEC2"
    },
    {
      "bufferView": 1,
      "byteOffset": 27824,
      "componentType": 5126,
      "count": 1295,
      "max": [
        0.9296910166740417,
        1.56482994556427
      ],
      "min": [
        0.043476998805999756,
        1.0571500062942505
      ],
      "type": "VEC2"
    },
    {
      "bufferView": 0,
      "byteOffset": 10560,
      "componentType": 5125,
      "count": 5706,
      "type": "SCALAR"
    },
    {
      "bufferView": 2,
      "byteOffset": 41736,
      "componentType": 5126,
      "count": 12345,
      "max": [
        13.962085723876953,
        50.65081787109375,
        12.190811157226563
      ],
      "min": [
        -13.962085723876953,
        0.18769854307174683,
        -85.90699768066406
      ],
      "type": "VEC3"
    },
    {
      "bufferView": 2,
      "byteOffset": 189876,
      "componentType": 5126,
      "count": 12345,
      "max": [
        0.999968945980072,
        0.9999657869338989,
        0.9999463558197021
      ],
      "min": [
        -0.9999246001243591,
        -0.9998094439506531,
        -0.9997959136962891
      ],
      "type": "VEC3"
    },
    {
      "bufferView": 3,
      "byteOffset": 20720,
      "componentType": 5126,
      "count": 12345,
      "max": [
        0.999822735786438,
        0.9999852180480957,
        0.9999445676803589,
        1.0
      ],
      "min": [
        -0.9999375343322754,
        -0.9992669820785522,
        -0.9999825954437256,
        -1.0
      ],
      "type": "VEC4"
    },
    {
      "bufferView": 1,
      "byteOffset": 38184,
      "componentType": 5126,
      "count": 12345,
      "max": [
        0.9980610013008118,
        1.9995299577713013
      ],
      "min": [
        0.013987638056278229,
        1.0524061918258667
      ],
      "type": "VEC2"
    },
    {
      "bufferView": 1,
      "byteOffset": 136944,
      "componentType": 5126,
      "count": 12345,
      "max": [
        0.9980610013008118,
        1.9995299577713013
      ],
      "min": [
        0.013987638056278229,
        1.0524061918258667
      ],
      "type": "VEC2"
    },
    {
      "bufferView": 1,
      "byteOffset": 235704,
      "componentType": 5126,
      "count": 12345,
      "max": [
        0.9980610013008118,
        1.9995299577713013
      ],
      "min": [
        0.013987638056278229,
        1.0524061918258667
      ],
      "type": "VEC2"
    },
    {
      "bufferView": 0,
      "byteOffset": 33384,
      "componentType": 5125,
      "count": 68724,
      "type": "SCALAR"
    },
    {
      "bufferView": 2,
      "byteOffset": 338016,
      "componentType": 5126,
      "count": 997,
      "max": [
        -1.1626569032669067,
        40.97504425048828,
        -3.6827828884124756
      ],
      "min": [
        -4.976203918457031,
        6.5743327140808105,
        -33.72249984741211
      ],
      "type": "VEC3"
    },
    {
      "bufferView": 2,
      "byteOffset": 349980,
      "componentType": 5126,
      "count": 997,
      "max": [
        0.9965376853942871,
        0.9860403537750244,
        0.9897737503051758
      ],
      "min": [
        -0.9981525540351868,
        -0.9976699352264404,
        -0.9986976385116577
      ],
      "type": "VEC3"
    },
    {
      "bufferView": 3,
      "byteOffset": 218240,
      "componentType": 5126,
      "count": 997,
      "max": [
        0.9996695518493652,
        0.9948520064353943,
        0.9986783862113953,
        1.0
      ],
      "min": [
        -0.9863157272338867,
        -0.9996022582054138,
        -0.999068558216095,
        -1.0
      ],
      "type": "VEC4"
    },
    {
      "bufferView": 1,
      "byteOffset": 334464,
      "componentType": 5126,
      "count": 997,
      "max": [
        0.997452974319458,
        1.3710500001907349
      ],
      "min": [
        0.018081000074744225,
        1.0568499565124512
      ],
      "type": "VEC2"
    },
    {
      "bufferView": 1,
      "byteOffset": 342440,
      "componentType": 5126,
      "count": 997,
      "max": [
        0.997452974319458,
        1.3710500001907349
      ],
      "min": [
        0.018081000074744225,
        1.0568499565124512
      ],
      "type": "VEC2"
    },
    {
      "bufferView": 1,
      "byteOffset": 350416,
      "componentType": 5126,
      "count": 997,
      "max": [
        0.997452974319458,
        1.3710500001907349
      ],
      "min": [
        0.018081000074744225,
        1.0568499565124512
      ],
      "type": "VEC2"
    },
    {
      "bufferView": 0,
      "byteOffset": 308280,
      "componentType": 5125,
      "count": 4362,
      "type": "SCALAR"
    },
    {
      "bufferView": 2,
      "byteOffset": 361944,
      "componentType": 5126,
      "count": 972,
      "max": [
        4.728733539581299,
        41.15318298339844,
        -3.6620776653289795
      ],
      "min": [
        0.7275115251541138,
        6.565003871917725,
        -33.920101165771484
      ],
      "type": "VEC3"
    },
    {
      "bufferView": 2,
      "byteOffset": 373608,
      "componentType": 5126,
      "count": 972,
      "max": [
        0.9995244145393372,
        0.995076060295105,
        0.9844012260437012
      ],
      "min": [
        -0.995388925075531,
        -0.9955382347106934,
        -0.9977986812591553
      ],
      "type": "VEC3"
    },
    {
      "bufferView": 3,
      "byteOffset": 234192,
      "componentType": 5126,
      "count": 972,
      "max": [
        0.9956310987472534,
        0.9997650384902954,
        0.9999014139175415,
        1.0
      ],
      "min": [
        -0.9991672039031982,
        -0.9994813799858093,
        -0.9998188018798828,
        -1.0
      ],
      "type": "VEC4"
    },
    {
      "bufferView": 1,
      "byteOffset": 358392,
      "componentType": 5126,
      "count": 972,
      "max": [
        0.9992820024490356,
        1.3284599781036377
      ],
      "min": [
        0.0005000000237487257,
        1.0554100275039673
      ],
      "type": "VEC2"
    },
    {
      "bufferView": 1,
      "byteOffset": 366168,
      "componentType": 5126,
      "count": 972,
      "max": [
        0.9992820024490356,
        1.3284599781036377
      ],
      "min": [
        0.0005000000237487257,
        1.0554100275039673
      ],
      "type": "VEC2"
    },
    {
      "bufferView": 1,
      "byteOffset": 373944,
      "componentType": 5126,
      "count": 972,
      "max": [
        0.9992820024490356,
        1.3284599781036377
      ],
      "min": [
        0.0005000000237487257,
        1.0554100275039673
      ],
      "type": "VEC2"
    },
    {
      "bufferView": 0,
      "byteOffset": 325728,
      "componentType": 5125,
      "count": 4200,
      "type": "SCALAR"
    }
  ],
  "asset": {
    "extras": {
      "author": "CGreature (https://sketchfab.com/CGreature)",
      "license": "SKETCHFAB Standard (https://sketchfab.com/licenses)",
      "source": "https://sketchfab.com/3d-models/ps4-godzilla-retexture-b6fed86c25244933ad22e3f127297a75",
      "title": "PS4 Godzilla Retexture"
    },
    "generator": "Sketchfab-15.55.0",
    "version": "2.0"
  },
  "bufferViews": [
    {
      "buffer": 0,
      "byteLength": 342528,
      "name": "floatBufferViews",
      "target": 34963
    },
    {
      "buffer": 0,
      "byteLength": 381720,
      "byteOffset": 342528,
      "byteStride": 8,
      "name": "floatBufferViews",
      "target": 34962
    },
    {
      "buffer": 0,
      "byteLength": 385272,
      "byteOffset": 724248,
      "byteStride": 12,
      "name": "floatBufferViews",
      "target": 34962
    },
    {
      "buffer": 0,
      "byteLength": 249744,
      "byteOffset": 1109520,
      "byteStride": 16,
      "name": "floatBufferViews",
      "target": 34962
    }
  ],
  "buffers": [
    {
      "byteLength": 1359264,
      "uri": "scene.bin"
    }
  ],
  "images": [
    {
      "uri": "textures/Material.006_baseColor.png"
    },
    {
      "uri": "textures/Material.002_baseColor.jpeg"
    },
    {
      "uri": "textures/Material.002_normal.jpeg"
    }
  ],
  "materials": [
    {
      "doubleSided": true,
      "name": "Material.006",
      "pbrMetallicRoughness": {
        "baseColorTexture": {
          "index": 0
        },
        "metallicFactor": 0.0,
        "roughnessFactor": 0.5
      }
    },
    {
      "doubleSided": true,
      "name": "Material.002",
      "normalTexture": {
        "index": 2
      },
      "pbrMetallicRoughness": {
        "baseColorTexture": {
          "index": 1
        },
        "metallicFactor": 0.0,
        "roughnessFactor": 0.5
      }
    },
    {
      "doubleSided": true,
      "name": "Material.001",
      "normalTexture": {
        "index": 2
      },
      "pbrMetallicRoughness": {
        "baseColorTexture": {
          "index": 1
        },
        "metallicFactor": 0.0,
        "roughnessFactor": 0.5
      }
    },
    {
      "doubleSided": true,
      "name": "Material.003",
      "normalTexture": {
        "index": 2
      },
      "pbrMetallicRoughness": {
        "baseColorTexture": {
          "index": 1
        },
        "metallicFactor": 0.0,
        "roughnessFactor": 0.5
      }
    },
    {
      "doubleSided": true,
      "name": "Material.004",
      "normalTexture": {
        "index": 2
      },
      "pbrMetallicRoughness": {
        "baseColorTexture": {
          "index": 1
        },
        "metallicFactor": 0.0,
        "roughnessFactor": 0.5
      }
    }
  ],
  "meshes": [
    {
      "name": "Object_0",
      "primitives": [
        {
          "attributes": {
            "NORMAL": 1,
            "POSITION": 0,
            "TEXCOORD_0": 2,
            "TEXCOORD_1": 3
          },
          "indices": 4,
          "material": 0,
          "mode": 4
        }
      ]
    },
    {
      "name": "Object_1",
      "primitives": [
        {
          "attributes": {
            "NORMAL": 6,
            "POSITION": 5,
            "TANGENT": 7,
            "TEXCOORD_0": 8,
            "TEXCOORD_1": 9,
            "TEXCOORD_2": 10
          },
          "indices": 11,
          "material": 1,
          "mode": 4
        }
      ]
    },
    {
      "name": "Object_2",
      "primitives": [
        {
          "attributes": {
            "NORMAL": 13,
            "POSITION": 12,
            "TANGENT": 14,
            "TEXCOORD_0": 15,
            "TEXCOORD_1": 16,
            "TEXCOORD_2": 17
          },
          "indices": 18,
          "material": 2,
          "mode": 4
        }
      ]
    },
    {
      "name": "Object_3",
      "primitives": [
        {
          "attributes": {
            "NORMAL": 20,
            "POSITION": 19,
            "TANGENT": 21,
            "TEXCOORD_0": 22,
            "TEXCOORD_1": 23,
            "TEXCOORD_2": 24
          },
          "indices": 25,
          "material": 3,
          "mode": 4
        }
      ]
    },
    {
      "name": "Object_4",
      "primitives": [
        {
          "attributes": {
            "NORMAL": 27,
            "POSITION": 26,
            "TANGENT": 28,
            "TEXCOORD_0": 29,
            "TEXCOORD_1": 30,
            "TEXCOORD_2": 31
          },
          "indices": 32,
          "material": 4,
          "mode": 4
        }
      ]
    }
  ],
  "nodes": [
    {
      "children": [
        1
      ],
      "matrix": [
        1.0,
        0.0,
        0.0,
        0.0,
        0.0,
        2.220446049250313e-16,
        -1.0,
        0.0,
        0.0,
        1.0,
        2.220446049250313e-16,
        0.0,
        0.0,
        0.0,
        0.0,
        1.0
      ],
      "name": "Sketchfab_model"
    },
    {
      "children": [
        2
      ],
      "name": "root"
    },
    {
      "children": [
        3
      ],
      "matrix": [
        1.0,
        0.0,
        0.0,
        0.0,
        0.0,
        2.220446049250313e-16,
        1.0,
        0.0,
        0.0,
        -1.0,
        2.220446049250313e-16,
        0.0,
        0.0,
        0.0,
        0.0,
        1.0
      ],
      "name": "GLTF_SceneRootNode"
    },
    {
      "children": [
        4,
        5,
        6,
        7,
        8
      ],
      "matrix": [
        0.10651559382677078,
        0.0,
        0.0,
        0.0,
        0.0,
        0.10651563853025436,
        0.0,
        0.0,
        0.0,
        0.0,
        0.10651563853025436,
        0.0,
        0.0,
        0.0,
        0.0,
        1.0
      ],
      "name": "Object_8_0"
    },
    {
      "mesh": 0,
      "name": "Object_4"
    },
    {
      "mesh": 1,
      "name": "Object_5"
    },
    {
      "mesh": 2,
      "name": "Object_6"
    },
    {
      "mesh": 3,
      "name": "Object_7"
    },
    {
      "mesh": 4,
      "name": "Object_8"
    }
  ],
  "samplers": [
    {
      "magFilter": 9729,
      "minFilter": 9987,
      "wrapS": 10497,
      "wrapT": 10497
    }
  ],
  "scene": 0,
  "scenes": [
    {
      "name": "Sketchfab_Scene",
      "nodes": [
        0
      ]
    }
  ],
  "textures": [
    {
      "sampler": 0,
      "source": 0
    },
    {
      "sampler": 0,
      "source": 1
    },
    {
      "sampler": 0,
      "source": 2
    }
  ]
}
