{
  "accessors": [
    {
      "bufferView": 2,
      "componentType": 5126,
      "count": 408,
      "max": [
        1.3355439901351929,
        0.5727530121803284,
        0.043703000992536545
      ],
      "min": [
        -0.6366850137710571,
        -1.0262999534606934,
        0.04370199888944626
      ],
      "type": "VEC3"
    },
    {
      "bufferView": 2,
      "byteOffset": 4896,
      "componentType": 5126,
      "count": 408,
      "max": [
        -0.0,
        0.0,
        0.2337087243795395
      ],
      "min": [
        -0.03870144486427307,
        -0.9715362191200256,
        -1.0
      ],
      "type": "VEC3"
    },
    {
      "bufferView": 1,
      "componentType": 5126,
      "count": 408,
      "max": [
        0.7922059893608093,
        0.6792600154876709
      ],
      "min": [
        0.687936007976532,
        0.5947189927101135
      ],
      "type": "VEC2"
    },
    {
      "bufferView": 0,
      "componentType": 5125,
      "count": 1200,
      "type": "SCALAR"
    },
    {
      "bufferView": 2,
      "byteOffset": 9792,
      "componentType": 5126,
      "count": 65532,
      "max": [
        1.4274810552597046,
        1.5771679878234863,
        3.78733491897583
      ],
      "min": [
        -1.6460880041122437,
        -1.1096869707107544,
        0.04370199888944626
      ],
      "type": "VEC3"
    },
    {
      "bufferView": 2,
      "byteOffset": 796176,
      "componentType": 5126,
      "count": 65532,
      "max": [
        0.9999912977218628,
        0.9999439716339111,
        0.9999850988388062
      ],
      "min": [
        -0.9996333718299866,
        -0.9999616146087646,
        -0.9998123049736023
      ],
      "type": "VEC3"
    },
    {
      "bufferView": 1,
      "byteOffset": 3264,
      "componentType": 5126,
      "count": 65532,
      "max": [
        0.9918419718742371,
        0.942982017993927
      ],
      "min": [
        0.007970999926328659,
        0.01611899957060814
      ],
      "type": "VEC2"
    },
    {
      "bufferView": 0,
      "byteOffset": 4800,
      "componentType": 5125,
      "count": 175932,
      "type": "SCALAR"
    },
    {
      "bufferView": 2,
      "byteOffset": 1582560,
      "componentType": 5126,
      "count": 65532,
      "max": [
        1.425034999847412,
        1.577805995941162,
        3.7859630584716797
      ],
      "min": [
        -1.5027259588241577,
        -1.1221020221710205,
        0.04370199888944626
      ],
      "type": "VEC3"
    },
    {
      "bufferView": 2,
      "byteOffset": 2368944,
      "componentType": 5126,
      "count": 65532,
      "max": [
        0.9999991655349731,
        0.999981164932251,
        0.9999250173568726
      ],
      "min": [
        -0.999969482421875,
        -0.9999096393585205,
        -0.9998749494552612
      ],
      "type": "VEC3"
    },
    {
      "bufferView": 1,
      "byteOffset": 527520,
      "componentType": 5126,
      "count": 65532,
      "max": [
        0.9914209842681885,
        0.9920560121536255
      ],
      "min": [
        0.007977000437676907,
        0.43494799733161926
      ],
      "type": "VEC2"
    },
    {
      "bufferView": 0,
      "byteOffset": 708528,
      "componentType": 5125,
      "count": 195825,
      "type": "SCALAR"
    },
    {
      "bufferView": 2,
      "byteOffset": 3155328,
      "componentType": 5126,
      "count": 65532,
      "max": [
        1.430482029914856,
        1.5876230001449585,
        3.7973248958587646
      ],
      "min": [
        -1.2637929916381836,
        -0.8693000078201294,
        0.09977500140666962
      ],
      "type": "VEC3"
    },
    {
      "bufferView": 2,
      "byteOffset": 3941712,
      "componentType": 5126,
      "count": 65532,
      "max": [
        0.9999889135360718,
        0.9999877214431763,
        0.9998862743377686
      ],
      "min": [
        -0.9999881982803345,
        -0.9999396800994873,
        -0.9998345971107483
      ],
      "type": "VEC3"
    },
    {
      "bufferView": 1,
      "byteOffset": 1051776,
      "componentType": 5126,
      "count": 65532,
      "max": [
        0.9801660180091858,
        0.9165549874305725
      ],
      "min": [
        0.007941000163555145,
        0.524878978729248
      ],
      "type": "VEC2"
    },
    {
      "bufferView": 0,
      "byteOffset": 1491828,
      "componentType": 5125,
      "count": 197649,
      "type": "SCALAR"
    },
    {
      "bufferView": 2,
      "byteOffset": 4728096,
      "componentType": 5126,
      "count": 65532,
      "max": [
        1.2464170455932617,
        1.4707880020141602,
        3.2974929809570313
      ],
      "min": [
        -1.5798989534378052,
        -1.0296720266342163,
        0.04370199888944626
      ],
      "type": "VEC3"
    },
    {
      "bufferView": 2,
      "byteOffset": 5514480,
      "componentType": 5126,
      "count": 65532,
      "max": [
        0.9999889135360718,
        0.9999997615814209,
        0.9998952150344849
      ],
      "min": [
        -0.999982476234436,
        -0.9999524354934692,
        -0.8771015405654907
      ],
      "type": "VEC3"
    },
    {
      "bufferView": 1,
      "byteOffset": 1576032,
      "componentType": 5126,
      "count": 65532,
      "max": [
        0.7647770047187805,
        0.9920610189437866
      ],
      "min": [
        0.026537999510765076,
        0.6466019749641418
      ],
      "type": "VEC2"
    },
    {
      "bufferView": 0,
      "byteOffset": 2282424,
      "componentType": 5125,
      "count": 200013,
      "type": "SCALAR"
    },
    {
      "bufferView": 2,
      "byteOffset": 6300864,
      "componentType": 5126,
      "count": 65532,
      "max": [
        1.3625249862670898,
        1.36872398853302,
        3.7962090969085693
      ],
      "min": [
        -0.9499610066413879,
        -1.1243840456008911,
        0.04370199888944626
      ],
      "type": "VEC3"
    },
    {
      "bufferView": 2,
      "byteOffset": 7087248,
      "componentType": 5126,
      "count": 65532,
      "max": [
        0.9994905591011047,
        0.9999997615814209,
        0.9998359084129333
      ],
      "min": [
        -0.999988317489624,
        -0.9999048709869385,
        -0.9904716610908508
      ],
      "type": "VEC3"
    },
    {
      "bufferView": 1,
      "byteOffset": 2100288,
      "componentType": 5126,
      "count": 65532,
      "max": [
        0.9581069946289063,
        0.9920030236244202
      ],
      "min": [
        0.007953999564051628,
        0.6476749777793884
      ],
      "type": "VEC2"
    },
    {
      "bufferView": 0,
      "byteOffset": 3082476,
      "componentType": 5125,
      "count": 201540,
      "type": "SCALAR"
    },
    {
      "bufferView": 2,
      "byteOffset": 7873632,
      "componentType": 5126,
      "count": 65533,
      "max": [
        1.4318000078201294,
        1.5037959814071655,
        3.7973248958587646
      ],
      "min": [
        -1.6620320081710815,
        -1.1250619888305664,
        0.04370199888944626
      ],
      "type": "VEC3"
    },
    {
      "bufferView": 2,
      "byteOffset": 8660028,
      "componentType": 5126,
      "count": 65533,
      "max": [
        0.9999803304672241,
        0.9998536109924316,
        0.9999836683273315
      ],
      "min": [
        -0.999855637550354,
        -1.0,
        -0.999824583530426
      ],
      "type": "VEC3"
    },
    {
      "bufferView": 1,
      "byteOffset": 2624544,
      "componentType": 5126,
      "count": 65533,
      "max": [
        0.9537360072135925,
        0.9919549822807312
      ],
      "min": [
        0.10588999837636948,
        0.6394490003585815
      ],
      "type": "VEC2"
    },
    {
      "bufferView": 0,
      "byteOffset": 3888636,
      "componentType": 5125,
      "count": 196470,
      "type": "SCALAR"
    },
    {
      "bufferView": 2,
      "byteOffset": 9446424,
      "componentType": 5126,
      "count": 35854,
      "max": [
        1.1839749813079834,
        1.588634967803955,
        3.7825510501861572
      ],
      "min": [
        -1.663161039352417,
        -1.0524669885635376,
        0.9303860068321228
      ],
      "type": "VEC3"
    },
    {
      "bufferView": 2,
      "byteOffset": 9876672,
      "componentType": 5126,
      "count": 35854,
      "max": [
        0.9999945163726807,
        0.9993404150009155,
        0.9991928339004517
      ],
      "min": [
        -0.9997733235359192,
        -0.999190092086792,
        -0.9998345971107483
      ],
      "type": "VEC3"
    },
    {
      "bufferView": 1,
      "byteOffset": 3148808,
      "componentType": 5126,
      "count": 35854,
      "max": [
        0.9247639775276184,
        0.8110219836235046
      ],
      "min": [
        0.5029209852218628,
        0.6426590085029602
      ],
      "type": "VEC2"
    },
    {
      "bufferView": 0,
      "byteOffset": 4674516,
      "componentType": 5125,
      "count": 104754,
      "type": "SCALAR"
    },
    {
      "bufferView": 2,
      "byteOffset": 10306920,
      "componentType": 5126,
      "count": 87,
      "max": [
        0.9310230016708374,
        1.3127939701080322,
        3.412363052368164
      ],
      "min": [
        -1.584434986114502,
        -0.9011409878730774,
        0.6039890050888062
      ],
      "type": "VEC3"
    },
    {
      "bufferView": 2,
      "byteOffset": 10307964,
      "componentType": 5126,
      "count": 87,
      "max": [
        0.9928920865058899,
        0.9969009757041931,
        0.9040228128433228
      ],
      "min": [
        -0.6062078475952148,
        -0.9601902961730957,
        -0.8746272325515747
      ],
      "type": "VEC3"
    },
    {
      "bufferView": 1,
      "byteOffset": 3435640,
      "componentType": 5126,
      "count": 87,
      "max": [
        0.8604900240898132,
        0.9902179837226868
      ],
      "min": [
        0.010236999951303005,
        0.9525759816169739
      ],
      "type": "VEC2"
    },
    {
      "bufferView": 0,
      "byteOffset": 5093532,
      "componentType": 5125,
      "count": 87,
      "type": "SCALAR"
    }
  ],
  "asset": {
    "extras": {
      "author": "jtressle (https://sketchfab.com/jtressle)",
      "license": "CC-BY-4.0 (http://creativecommons.org/licenses/by/4.0/)",
      "source": "https://sketchfab.com/3d-models/king-kong-action-figure-4677e84631bb4984966b3b7cdedca757",
      "title": "King Kong Action Figure"
    },
    "generator": "Sketchfab-14.64.0",
    "version": "2.0"
  },
  "bufferViews": [
    {
      "buffer": 0,
      "byteLength": 5093880,
      "name": "floatBufferViews",
      "target": 34963
    },
    {
      "buffer": 0,
      "byteLength": 3436336,
      "byteOffset": 5093880,
      "byteStride": 8,
      "name": "floatBufferViews",
      "target": 34962
    },
    {
      "buffer": 0,
      "byteLength": 10309008,
      "byteOffset": 8530216,
      "byteStride": 12,
      "name": "floatBufferViews",
      "target": 34962
    }
  ],
  "buffers": [
    {
      "byteLength": 18839224,
      "uri": "scene.bin"
    }
  ],
  "images": [
    {
      "uri": "textures/material0000_baseColor.jpeg"
    },
    {
      "uri": "textures/material0001_baseColor.jpeg"
    }
  ],
  "materials": [
    {
      "doubleSided": true,
      "name": "Material",
      "pbrMetallicRoughness": {
        "baseColorFactor": [
          0.8,
          0.8,
          0.8,
          1.0
        ],
        "metallicFactor": 0.0,
        "roughnessFactor": 0.7822061412653569
      }
    },
    {
      "doubleSided": true,
      "name": "material0000",
      "pbrMetallicRoughness": {
        "baseColorTexture": {
          "index": 0
        },
        "metallicFactor": 0.5,
        "roughnessFactor": 0.9
      }
    },
    {
      "doubleSided": true,
      "name": "material0001",
      "pbrMetallicRoughness": {
        "baseColorTexture": {
          "index": 1
        },
        "metallicFactor": 0.5,
        "roughnessFactor": 0.9
      }
    }
  ],
  "meshes": [
    {
      "name": "Object_0",
      "primitives": [
        {
          "attributes": {
            "NORMAL": 1,
            "POSITION": 0,
            "TEXCOORD_0": 2
          },
          "indices": 3,
          "material": 0,
          "mode": 4
        }
      ]
    },
    {
      "name": "Object_1",
      "primitives": [
        {
          "attributes": {
            "NORMAL": 5,
            "POSITION": 4,
            "TEXCOORD_0": 6
          },
          "indices": 7,
          "material": 1,
          "mode": 4
        }
      ]
    },
    {
      "name": "Object_2",
      "primitives": [
        {
          "attributes": {
            "NORMAL": 9,
            "POSITION": 8,
            "TEXCOORD_0": 10
          },
          "indices": 11,
          "material": 1,
          "mode": 4
        }
      ]
    },
    {
      "name": "Object_3",
      "primitives": [
        {
          "attributes": {
            "NORMAL": 13,
            "POSITION": 12,
            "TEXCOORD_0": 14
          },
          "indices": 15,
          "material": 1,
          "mode": 4
        }
      ]
    },
    {
      "name": "Object_4",
      "primitives": [
        {
          "attributes": {
            "NORMAL": 17,
            "POSITION": 16,
            "TEXCOORD_0": 18
          },
          "indices": 19,
          "material": 1,
          "mode": 4
        }
      ]
    },
    {
      "name": "Object_5",
      "primitives": [
        {
          "attributes": {
            "NORMAL": 21,
            "POSITION": 20,
            "TEXCOORD_0": 22
          },
          "indices": 23,
          "material": 1,
          "mode": 4
        }
      ]
    },
    {
      "name": "Object_6",
      "primitives": [
        {
          "attributes": {
            "NORMAL": 25,
            "POSITION": 24,
            "TEXCOORD_0": 26
          },
          "indices": 27,
          "material": 1,
          "mode": 4
        }
      ]
    },
    {
      "name": "Object_7",
      "primitives": [
        {
          "attributes": {
            "NORMAL": 29,
            "POSITION": 28,
            "TEXCOORD_0": 30
          },
          "indices": 31,
          "material": 1,
          "mode": 4
        }
      ]
    },
    {
      "name": "Object_8",
      "primitives": [
        {
          "attributes": {
            "NORMAL": 33,
            "POSITION": 32,
            "TEXCOORD_0": 34
          },
          "indices": 35,
          "material": 2,
          "mode": 4
        }
      ]
    }
  ],
  "nodes": [
    {
      "children": [
        1
      ],
      "matrix": [
        -1.0,
        6.290011496532519e-32,
        -2.832769343193999e-16,
        0.0,
        -2.832769343193999e-16,
        -2.220446049250313e-16,
        1.0,
        0.0,
        0.0,
        1.0,
        2.220446049250313e-16,
        0.0,
        0.0,
        0.0,
        0.0,
        1.0
      ],
      "name": "Sketchfab_model"
    },
    {
      "children": [
        2,
        3,
        4,
        5,
        6,
        7,
        8,
        9,
        10
      ],
      "name": "kong.obj.cleaner.materialmerger.gles"
    },
    {
      "mesh": 0,
      "name": "Object_2"
    },
    {
      "mesh": 1,
      "name": "Object_3"
    },
    {
      "mesh": 2,
      "name": "Object_4"
    },
    {
      "mesh": 3,
      "name": "Object_5"
    },
    {
      "mesh": 4,
      "name": "Object_6"
    },
    {
      "mesh": 5,
      "name": "Object_7"
    },
    {
      "mesh": 6,
      "name": "Object_8"
    },
    {
      "mesh": 7,
      "name": "Object_9"
    },
    {
      "mesh": 8,
      "name": "Object_10"
    }
  ],
  "samplers": [
    {
      "magFilter": 9729,
      "minFilter": 9987,
      "wrapS": 10497,
      "wrapT": 10497
    }
  ],
  "scene": 0,
  "scenes": [
    {
      "name": "Sketchfab_Scene",
      "nodes": [
        0
      ]
    }
  ],
  "textures": [
    {
      "sampler": 0,
      "source": 0
    },
    {
      "sampler": 0,
      "source": 1
    }
  ]
}
